# xmcd
#
# Track frame offsets:
#	150
#	12197
#	25823
#	41765
#	59760
#	76842
#	93162
#	108643
#	121301
#	134037
#	147546
#	159517
#	178277
#	193454
#	209581
#	220628
#	233459
#	250031
#
# Disc length: 3602 seconds
#
# Revision: 0
# Processed by: cddbd v1.4PL0 Copyright (c) Steve Scherf et al.
# Submitted via: audiograbber 1.82.01
#
DISCID=090e1012
DTITLE=Ungorgettable Duets - sing 'n lekker liedjie
DYEAR=1900
DGENRE=Folk
TTITLE0=die kunstenaars - sing 'n lekker liedjie
TTITLE1=gene and duane rockwell - town without pitty
TTITLE2=gé korsten and andré sahwartz - i believe
TTITLE3=sias reinecke and carike keuzenkamp - herinnerings
TTITLE4=charles jacoby and lance james - don't be shy to cry
TTITLE5=gé korsten and andré schwartz - vlieg met die wind
TTITLE6=Sias reinecke and rude muller - hartseer
TTITLE7=bles bridges and sunette bridges - love and roses
TTITLE8=charles jacoby and lance james - it's who you love
TTITLE9=jurie ferreira and lance james - tahiti verreland
TTITLE10=gene and duane rockwell - put your head on my shoulder
TTITLE11=bles bridges and audrey landers - my day in the sun
TTITLE12=gé korsten and rina hugo - ek mis jou elke dag 'n bietjie meer
TTITLE13=gene rockwell and theo cavalieros - amore scusami
TTITLE14=sias reinecke and gert van tonder - daar's niks soos ware liefde
TTITLE15=koos du plessis and carla du plessis - as jy my kon volg
TTITLE16=sias reinecke and rina hugo - wie sal kom nag sê
TTITLE17=tessa ziegler and dave hewitt - medley - just the way you are, i'm not i
TTITLE17=n love, how deep is your love
EXTD=
EXTT0=
EXTT1=
EXTT2=
EXTT3=
EXTT4=
EXTT5=
EXTT6=
EXTT7=
EXTT8=
EXTT9=
EXTT10=
EXTT11=
EXTT12=
EXTT13=
EXTT14=
EXTT15=
EXTT16=
EXTT17=
PLAYORDER=
